<?xml version="1.0" encoding="UTF-8" standalone="no"?>
<!-- Created with Inkscape (http://www.inkscape.org/) -->

<svg
   xmlns:dc="http://purl.org/dc/elements/1.1/"
   xmlns:cc="http://creativecommons.org/ns#"
   xmlns:rdf="http://www.w3.org/1999/02/22-rdf-syntax-ns#"
   xmlns:svg="http://www.w3.org/2000/svg"
   xmlns="http://www.w3.org/2000/svg"
   xmlns:sodipodi="http://sodipodi.sourceforge.net/DTD/sodipodi-0.dtd"
   xmlns:inkscape="http://www.inkscape.org/namespaces/inkscape"
   width="210mm"
   height="297mm"
   viewBox="0 0 210 297"
   version="1.1"
   id="svg8"
   inkscape:version="0.92.4 (5da689c313, 2019-01-14)"
   sodipodi:docname="3D_Text_Russia.svg">
  <defs
     id="defs2">
    <filter
       inkscape:collect="always"
       style="color-interpolation-filters:sRGB"
       id="filter3156"
       x="-0.11333355"
       width="1.2266671"
       y="-0.092206954"
       height="1.1844139">
      <feGaussianBlur
         inkscape:collect="always"
         stdDeviation="0.22792226"
         id="feGaussianBlur3158" />
    </filter>
    <filter
       inkscape:collect="always"
       style="color-interpolation-filters:sRGB"
       id="filter3160"
       x="-0.12302829"
       width="1.2460566"
       y="-0.068029269"
       height="1.1360585">
      <feGaussianBlur
         inkscape:collect="always"
         stdDeviation="0.22792226"
         id="feGaussianBlur3162" />
    </filter>
    <filter
       inkscape:collect="always"
       style="color-interpolation-filters:sRGB"
       id="filter4311"
       x="-0.020084084"
       width="1.0401682"
       y="-0.083768058"
       height="1.1675361">
      <feGaussianBlur
         inkscape:collect="always"
         stdDeviation="0.27041167"
         id="feGaussianBlur4313" />
    </filter>
    <filter
       inkscape:collect="always"
       style="color-interpolation-filters:sRGB"
       id="filter4547"
       x="-0.014936191"
       width="1.0298724"
       y="-0.061043139"
       height="1.1220863">
      <feGaussianBlur
         inkscape:collect="always"
         stdDeviation="0.20109883"
         id="feGaussianBlur4549" />
    </filter>
  </defs>
  <sodipodi:namedview
     id="base"
     pagecolor="#ffffff"
     bordercolor="#666666"
     borderopacity="1.0"
     inkscape:pageopacity="0.0"
     inkscape:pageshadow="2"
     inkscape:zoom="0.5"
     inkscape:cx="503.81729"
     inkscape:cy="692.79721"
     inkscape:document-units="mm"
     inkscape:current-layer="layer1"
     showgrid="false"
     showguides="true"
     inkscape:guide-bbox="true"
     inkscape:window-width="1920"
     inkscape:window-height="1017"
     inkscape:window-x="-8"
     inkscape:window-y="1072"
     inkscape:window-maximized="1" />
  <metadata
     id="metadata5">
    <rdf:RDF>
      <cc:Work
         rdf:about="">
        <dc:format>image/svg+xml</dc:format>
        <dc:type
           rdf:resource="http://purl.org/dc/dcmitype/StillImage" />
        <dc:title></dc:title>
      </cc:Work>
    </rdf:RDF>
  </metadata>
  <g
     inkscape:label="Layer 1"
     inkscape:groupmode="layer"
     id="layer1">
    <text
       id="text4317"
       y="113.90214"
       x="49.451729"
       style="font-style:normal;font-variant:normal;font-weight:normal;font-stretch:normal;font-size:10.58333302px;line-height:1.25;font-family:sans-serif;-inkscape-font-specification:'sans-serif, Normal';font-variant-ligatures:normal;font-variant-caps:normal;font-variant-numeric:normal;font-feature-settings:normal;text-align:start;letter-spacing:0px;word-spacing:0px;writing-mode:lr-tb;text-anchor:start;fill:#4d4d4d;fill-opacity:1;stroke:none;stroke-width:0.26458332;filter:url(#filter4547)"
       xml:space="preserve"><tspan
         id="tspan4315"
         style="fill:#4d4d4d;stroke-width:0.26458332"
         y="113.90214"
         x="49.451729"
         sodipodi:role="line">Russia</tspan></text>
    <text
       xml:space="preserve"
       style="font-style:normal;font-variant:normal;font-weight:normal;font-stretch:normal;font-size:10.58333302px;line-height:1.25;font-family:sans-serif;-inkscape-font-specification:'sans-serif, Normal';font-variant-ligatures:normal;font-variant-caps:normal;font-variant-numeric:normal;font-feature-settings:normal;text-align:start;letter-spacing:0px;word-spacing:0px;writing-mode:lr-tb;text-anchor:start;fill:#4d4d4d;fill-opacity:1;stroke:none;stroke-width:0.26458332"
       x="49.980896"
       y="113.37299"
       id="text3215"><tspan
         sodipodi:role="line"
         x="49.980896"
         y="113.37299"
         style="fill:#4d4d4d;stroke-width:0.26458332"
         id="tspan3213">Russia</tspan></text>
    <g
       aria-label="Russland"
       style="font-style:normal;font-variant:normal;font-weight:normal;font-stretch:normal;font-size:10.58333302px;line-height:1.25;font-family:sans-serif;-inkscape-font-specification:'sans-serif, Normal';font-variant-ligatures:normal;font-variant-caps:normal;font-variant-numeric:normal;font-feature-settings:normal;text-align:start;letter-spacing:0px;word-spacing:0px;writing-mode:lr-tb;text-anchor:start;fill:#4d4d4d;fill-opacity:1;stroke:none;stroke-width:0.26458332"
       id="text885"
       transform="translate(-14.260777,1.3609246)" />
    <g
       id="g3893"
       style="opacity:0.554;filter:url(#filter4311)">
      <g
         transform="translate(4.678797,2.00235)"
         id="text889"
         style="font-style:normal;font-variant:normal;font-weight:normal;font-stretch:normal;font-size:10.58333302px;line-height:1.25;font-family:sans-serif;-inkscape-font-specification:'sans-serif, Normal';font-variant-ligatures:normal;font-variant-caps:normal;font-variant-numeric:normal;font-feature-settings:normal;text-align:start;letter-spacing:0px;word-spacing:0px;writing-mode:lr-tb;text-anchor:start;fill:#6c5353;fill-opacity:1;stroke:none;stroke-width:0.26458332"
         aria-label="Russland">
        <path
           sodipodi:nodetypes="sccccscccsccscccsccccccccsc"
           inkscape:connector-curvature="0"
           id="path946"
           d="m 76.143168,105.46306 c -0.347954,0 -0.701077,0.031 -1.059365,0.093 -0.358291,0.062 -0.632177,0.11887 -0.821656,0.17054 v 0.41341 c 0.09441,-0.0181 0.182036,-0.0357 0.292489,-0.0548 0.358288,-0.062 0.711412,-0.093 1.059365,-0.093 0.406522,0 0.759645,0.0345 1.059368,0.10335 0.303167,0.0655 0.564996,0.17915 0.785482,0.34107 0.21704,0.15847 0.382405,0.36345 0.496093,0.61495 0.113689,0.25148 0.170532,0.56326 0.170532,0.93534 v 3.3879 h 0.529167 v -3.91707 c 0,-0.37207 -0.05684,-0.68385 -0.170532,-0.93534 -0.113689,-0.25149 -0.279053,-0.45647 -0.496094,-0.61495 -0.220485,-0.16191 -0.482314,-0.2756 -0.785481,-0.34107 -0.299723,-0.0689 -0.652847,-0.10335 -1.059368,-0.10335 z m 0.9741,2.13424 c -0.352001,0.0242 -0.6942,0.0519 -1.015441,0.0879 -0.492649,0.0551 -0.914673,0.1602 -1.266071,0.31523 -0.347956,0.15502 -0.616673,0.36862 -0.806154,0.64079 -0.01286,0.0186 -0.02212,0.0406 -0.03411,0.0599 0.09626,-0.0627 0.198131,-0.12124 0.311092,-0.17157 0.351398,-0.15503 0.773422,-0.26011 1.266071,-0.31522 0.492649,-0.0551 1.021472,-0.0965 1.586468,-0.12403 v -0.14986 c 0,-0.12755 -0.01535,-0.24095 -0.04186,-0.34313 z"
           style="opacity:1;fill:#ffffff;stroke-width:0.26458332" />
        <path
           inkscape:connector-curvature="0"
           id="path938"
           d="m 62.186378,105.45945 c -0.368626,0 -0.702803,0.0482 -1.002525,0.14469 -0.296278,0.093 -0.54088,0.22049 -0.733804,0.38241 -0.149338,0.12359 -0.270787,0.25964 -0.36432,0.40824 0.161938,-0.1056 0.351179,-0.1931 0.568957,-0.26148 0.299725,-0.0965 0.633899,-0.14469 1.002525,-0.14469 0.344509,0 0.692462,0.0431 1.043863,0.12919 0.354846,0.0827 0.649401,0.18431 0.883666,0.30489 v 0.22738 c 0.175898,0.085 0.33623,0.17816 0.477491,0.28215 h 0.05168 v -1.0387 c -0.234268,-0.12058 -0.528823,-0.22221 -0.883666,-0.30489 -0.351401,-0.0861 -0.699355,-0.12919 -1.043863,-0.12919 z m -1.3193,1.47278 c -0.06329,0.0247 -0.124135,0.0525 -0.181385,0.0847 -0.244602,0.13436 -0.366903,0.3359 -0.366903,0.60461 0,0.23771 0.07407,0.41686 0.22221,0.53744 0.144693,0.12058 0.37896,0.21876 0.702799,0.29456 0.179144,0.0413 0.37896,0.0827 0.599446,0.12402 0.22393,0.0413 0.409966,0.0792 0.558106,0.11369 0.451306,0.10335 0.799262,0.28078 1.043864,0.53226 0.244602,0.25494 0.3669,0.59256 0.366903,1.01286 0,0.31583 -0.08012,0.59711 -0.237197,0.84491 0.03724,-0.0251 0.07494,-0.0497 0.110072,-0.077 0.437526,-0.33762 0.656291,-0.76997 0.656291,-1.29707 0,-0.42031 -0.122301,-0.75792 -0.366903,-1.01286 -0.244602,-0.25149 -0.592558,-0.42892 -1.043863,-0.53227 -0.14814,-0.0344 -0.334174,-0.0724 -0.558107,-0.11369 -0.220485,-0.0414 -0.420301,-0.0827 -0.599445,-0.12402 -0.323839,-0.0758 -0.558107,-0.17399 -0.702799,-0.29456 -0.148141,-0.12058 -0.222211,-0.29972 -0.222211,-0.53743 0,-0.0569 0.0082,-0.10933 0.01912,-0.1602 z m -1.037146,3.0024 v 0.83613 c 0.173038,0.094 0.354867,0.17594 0.545703,0.24598 0.375516,0.13435 0.735526,0.20153 1.080037,0.20153 0.427191,0 0.761365,-0.0689 1.002523,-0.2067 0.18035,-0.10306 0.293004,-0.25066 0.338481,-0.44235 -0.217186,0.0795 -0.487254,0.11989 -0.811837,0.11989 -0.344511,0 -0.704522,-0.0672 -1.080037,-0.20154 -0.375515,-0.1378 -0.716582,-0.32212 -1.023194,-0.55294 z"
           style="opacity:1;fill:#ffffff;stroke-width:0.26458332" />
        <path
           inkscape:connector-curvature="0"
           id="path936"
           d="m 53.47739,105.52757 v 0.52917 h 0.442348 v 3.28662 c 0,0.29283 0.01378,0.54433 0.04134,0.75448 0.02756,0.2067 0.08613,0.38412 0.175699,0.53226 0.09302,0.15159 0.213595,0.26183 0.361735,0.33073 0.148138,0.0689 0.363459,0.10335 0.645957,0.10335 0.251492,0 0.525375,-0.0654 0.821655,-0.19637 0.299723,-0.13091 0.578777,-0.298 0.837158,-0.50126 v -0.18086 c -0.100338,0.055 -0.202536,0.1069 -0.307991,0.15296 -0.29628,0.13091 -0.570164,0.19637 -0.821655,0.19637 -0.282499,0 -0.497817,-0.0345 -0.645957,-0.10335 -0.148137,-0.0689 -0.268716,-0.17915 -0.361736,-0.33073 -0.08957,-0.14814 -0.14814,-0.32556 -0.175699,-0.53227 -0.02756,-0.21015 -0.04134,-0.46164 -0.04134,-0.75448 v -3.28662 z m 3.855061,0 v 0.52917 H 57.7748 v 5.24309 h 0.529166 v -5.77226 z"
           style="opacity:1;fill:#ffffff;stroke-width:0.26458332" />
        <path
           inkscape:connector-curvature="0"
           id="path934"
           d="m 46.341095,103.6782 v 0.52968 h 1.62574 c 0.465088,0 0.85266,0.0305 1.16272,0.0925 0.31006,0.0586 0.58911,0.1654 0.837157,0.32039 0.279054,0.1757 0.496094,0.39791 0.651124,0.66663 0.158475,0.26527 0.237712,0.60289 0.237712,1.01286 0,0.53829 -0.132498,0.99159 -0.395324,1.36115 0.195357,-0.14165 0.364511,-0.30652 0.505912,-0.49506 0.279051,-0.37551 0.418579,-0.8406 0.418579,-1.39526 0,-0.40997 -0.07924,-0.74759 -0.237712,-1.01286 -0.15503,-0.26872 -0.372071,-0.49092 -0.651124,-0.66662 -0.248047,-0.155 -0.527098,-0.2618 -0.837158,-0.3204 -0.310057,-0.062 -0.697632,-0.093 -1.162719,-0.093 z"
           style="opacity:1;fill:#ffffff;stroke-width:0.26458332" />
        <path
           inkscape:connector-curvature="0"
           id="path932"
           d="m 46.835123,105.08638 v 2.90421 h 1.033528 c 0.323837,0 0.606335,-0.0281 0.847492,-0.0832 0.241157,-0.0586 0.446141,-0.16539 0.61495,-0.32039 0.111993,-0.10452 0.201422,-0.22013 0.270267,-0.34623 -0.108654,0.0593 -0.226526,0.10598 -0.35605,0.13746 -0.241157,0.0551 -0.523653,0.0832 -0.847492,0.0832 h -1.033529 v -2.37505 z"
           style="opacity:1;fill:#ffffff;stroke-width:0.26458332" />
        <path
           inkscape:connector-curvature="0"
           id="path930"
           d="m 49.954827,108.17249 c -0.196016,0.14576 -0.418637,0.2679 -0.670242,0.36536 l 2.438093,2.83497 h 0.984954 z"
           style="opacity:1;fill:#ffffff;stroke-width:0.26458332" />
        <path
           inkscape:connector-curvature="0"
           id="path922"
           d="m 46.835123,108.84325 v 2.52957 h 0.529166 v -2.52957 z"
           style="opacity:1;fill:#ffffff;stroke-width:0.26458332" />
        <path
           style="opacity:1;fill:#ffffff;stroke-width:0.26458332"
           d="m 67.703196,105.45945 c -0.368626,0 -0.702803,0.0482 -1.002525,0.14469 -0.296278,0.093 -0.54088,0.22049 -0.733804,0.38241 -0.149338,0.12359 -0.270787,0.25964 -0.36432,0.40824 0.161938,-0.1056 0.351179,-0.1931 0.568957,-0.26148 0.299725,-0.0965 0.633899,-0.14469 1.002525,-0.14469 0.344509,0 0.692462,0.0431 1.043863,0.12919 0.354846,0.0827 0.649401,0.18431 0.883666,0.30489 v 0.22738 c 0.175898,0.085 0.33623,0.17816 0.477491,0.28215 h 0.05168 v -1.0387 c -0.234268,-0.12058 -0.528823,-0.22221 -0.883666,-0.30489 -0.351401,-0.0861 -0.699355,-0.12919 -1.043863,-0.12919 z m -1.3193,1.47278 c -0.06329,0.0247 -0.124135,0.0525 -0.181385,0.0847 -0.244602,0.13436 -0.366903,0.3359 -0.366903,0.60461 0,0.23771 0.07407,0.41686 0.22221,0.53744 0.144693,0.12058 0.37896,0.21876 0.702799,0.29456 0.179144,0.0413 0.37896,0.0827 0.599446,0.12402 0.22393,0.0413 0.409966,0.0792 0.558106,0.11369 0.451306,0.10335 0.799262,0.28078 1.043864,0.53226 0.244602,0.25494 0.3669,0.59256 0.366903,1.01286 0,0.31583 -0.08012,0.59711 -0.237197,0.84491 0.03724,-0.0251 0.07494,-0.0497 0.110072,-0.077 0.437526,-0.33762 0.656291,-0.76997 0.656291,-1.29707 0,-0.42031 -0.122301,-0.75792 -0.366903,-1.01286 -0.244602,-0.25149 -0.592558,-0.42892 -1.043863,-0.53227 -0.14814,-0.0344 -0.334174,-0.0724 -0.558107,-0.11369 -0.220485,-0.0414 -0.420301,-0.0827 -0.599445,-0.12402 -0.323839,-0.0758 -0.558107,-0.17399 -0.702799,-0.29456 -0.148141,-0.12058 -0.222211,-0.29972 -0.222211,-0.53743 0,-0.0569 0.0082,-0.10933 0.01912,-0.1602 z m -1.037146,3.0024 v 0.83613 c 0.173038,0.094 0.354867,0.17594 0.545703,0.24598 0.375516,0.13435 0.735526,0.20153 1.080037,0.20153 0.427191,0 0.761365,-0.0689 1.002523,-0.2067 0.18035,-0.10306 0.293004,-0.25066 0.338481,-0.44235 -0.217186,0.0795 -0.487254,0.11989 -0.811837,0.11989 -0.344511,0 -0.704522,-0.0672 -1.080037,-0.20154 -0.375515,-0.1378 -0.716582,-0.32212 -1.023194,-0.55294 z"
           id="path3536"
           inkscape:connector-curvature="0" />
      </g>
      <path
         inkscape:connector-curvature="0"
         id="text3676"
         d="m 75.881672,105.62973 v 0.52917 h 0.566372 v 0.47852 h 0.529167 v -1.00769 z m 0.06201,1.97404 v 0.52917 h 0.442352 v 5.24309 H 76.9152 v -5.77226 z"
         style="font-style:normal;font-variant:normal;font-weight:normal;font-stretch:normal;font-size:10.58333302px;line-height:1.25;font-family:sans-serif;-inkscape-font-specification:'sans-serif, Normal';font-variant-ligatures:normal;font-variant-caps:normal;font-variant-numeric:normal;font-feature-settings:normal;text-align:start;letter-spacing:0px;word-spacing:0px;writing-mode:lr-tb;text-anchor:start;fill:#ffffff;fill-opacity:1;stroke:none;stroke-width:0.26458332" />
    </g>
  </g>
</svg>
