<?xml version="1.0" encoding="UTF-8" standalone="no"?>
<!-- Created with Inkscape (http://www.inkscape.org/) -->

<svg
   xmlns:dc="http://purl.org/dc/elements/1.1/"
   xmlns:cc="http://creativecommons.org/ns#"
   xmlns:rdf="http://www.w3.org/1999/02/22-rdf-syntax-ns#"
   xmlns:svg="http://www.w3.org/2000/svg"
   xmlns="http://www.w3.org/2000/svg"
   xmlns:sodipodi="http://sodipodi.sourceforge.net/DTD/sodipodi-0.dtd"
   xmlns:inkscape="http://www.inkscape.org/namespaces/inkscape"
   width="210mm"
   height="297mm"
   viewBox="0 0 210 297"
   version="1.1"
   id="svg8"
   inkscape:version="0.92.4 (5da689c313, 2019-01-14)"
   sodipodi:docname="Emoji.svg">
  <defs
     id="defs2">
    <filter
       inkscape:collect="always"
       style="color-interpolation-filters:sRGB"
       id="filter6399"
       x="-1.1700342"
       width="3.3400684"
       y="-0.15337528"
       height="1.3067506">
      <feGaussianBlur
         inkscape:collect="always"
         stdDeviation="4.5145852"
         id="feGaussianBlur6401" />
    </filter>
    <filter
       inkscape:collect="always"
       style="color-interpolation-filters:sRGB"
       id="filter6557"
       x="-1.59132"
       width="4.18264"
       y="-0.17813284"
       height="1.3562657">
      <feGaussianBlur
         inkscape:collect="always"
         stdDeviation="2.6314797"
         id="feGaussianBlur6559" />
    </filter>
  </defs>
  <sodipodi:namedview
     id="base"
     pagecolor="#ffffff"
     bordercolor="#666666"
     borderopacity="1.0"
     inkscape:pageopacity="0.0"
     inkscape:pageshadow="2"
     inkscape:zoom="4"
     inkscape:cx="439.11661"
     inkscape:cy="900.73885"
     inkscape:document-units="mm"
     inkscape:current-layer="layer1"
     showgrid="false"
     showguides="true"
     inkscape:guide-bbox="true"
     inkscape:window-width="1920"
     inkscape:window-height="1017"
     inkscape:window-x="-8"
     inkscape:window-y="1072"
     inkscape:window-maximized="1" />
  <metadata
     id="metadata5">
    <rdf:RDF>
      <cc:Work
         rdf:about="">
        <dc:format>image/svg+xml</dc:format>
        <dc:type
           rdf:resource="http://purl.org/dc/dcmitype/StillImage" />
        <dc:title />
      </cc:Work>
    </rdf:RDF>
  </metadata>
  <g
     inkscape:label="Layer 1"
     inkscape:groupmode="layer"
     id="layer1">
    <path
       style="opacity:1;fill:#666666;fill-opacity:1;fill-rule:nonzero;stroke:none;stroke-width:0.26499999;stroke-miterlimit:4;stroke-dasharray:none;stroke-opacity:1"
       d="m 101.89697,36.459592 c 1.15989,-0.0089 2.2575,0.03396 3.29075,0.119372 1.03325,0.08542 2.0021,0.213204 2.9037,0.374656 0.90161,0.161448 1.73619,0.356444 2.50114,0.575675 0.76495,0.219231 1.46031,0.462647 2.08359,0.721402 0.62329,0.258755 1.17445,0.532847 1.65107,0.812871 0.47661,0.280022 0.87861,0.566008 1.20354,0.849043 0.32493,0.283038 0.57279,0.563163 0.74104,0.830958 0.16825,0.267793 0.257,0.52328 0.26355,0.757577 l 0.0233,1.905825 v 31.625461 c 0.0233,1.080831 0.13009,2.120109 0.30954,3.124359 0.17945,1.004252 0.4315,1.973691 0.74621,2.915071 0.31471,0.941379 0.6918,1.85439 1.12086,2.746599 0.42906,0.892212 0.91049,1.763242 1.43299,2.619992 0.5225,0.85675 1.08652,1.69922 1.68155,2.534219 0.59503,0.83499 1.22094,1.662829 1.86759,2.489771 1.29329,1.653868 2.66887,3.30512 4.04316,5.008989 0.68714,0.85194 1.37398,1.716921 2.05,2.60191 0.67603,0.884991 1.34141,1.790048 1.98541,2.721798 0.644,0.93175 1.26671,1.8903 1.85777,2.88251 0.59106,0.99222 1.1504,2.01818 1.6676,3.08457 0.5172,1.06638 0.99195,2.17319 1.41438,3.32744 0.42244,1.15426 0.7924,2.35584 1.09916,3.61167 0.30676,1.25583 0.55071,2.56611 0.72089,3.93723 0.17017,1.3711 0.26637,2.803 0.27905,4.30309 l 0.006,93.23049 c 4e-5,0.64669 -0.0755,1.21251 -0.18862,1.69808 -0.1131,0.48558 -0.26363,0.89084 -0.41444,1.21492 -0.30163,0.64817 -0.60358,0.97306 -0.60358,0.97306 -0.40587,0.35454 -0.84634,0.69623 -1.31982,1.02578 -0.47348,0.32956 -0.97968,0.64652 -1.51619,0.95137 -0.5365,0.30484 -1.10365,0.59755 -1.6986,0.87798 -0.59495,0.28043 -1.21773,0.54884 -1.86655,0.80512 -1.29764,0.51254 -2.69864,0.97715 -4.18425,1.39474 -1.4856,0.4176 -3.05583,0.78827 -4.69273,1.11311 -1.6369,0.32485 -3.34013,0.60389 -5.09168,0.8382 -1.75155,0.23432 -3.55154,0.424 -5.38107,0.56998 -1.82952,0.146 -3.68902,0.24813 -5.55986,0.308 -1.87085,0.0599 -3.7531,0.0773 -5.6286,0.0532 -1.875512,-0.024 -3.744272,-0.0896 -5.587773,-0.19534 -1.843508,-0.10574 -3.661518,-0.25195 -5.436358,-0.43719 -1.774851,-0.18522 -3.506391,-0.40926 -5.175921,-0.67179 -1.66952,-0.26253 -3.27733,-0.56311 -4.804869,-0.90071 -1.527541,-0.33762 -2.974871,-0.71246 -4.32377,-1.12294 -1.34889,-0.41048 -2.598991,-0.85676 -3.73259,-1.3379 -0.566791,-0.24058 -1.104651,-0.48992 -1.610751,-0.74776 -0.506099,-0.25782 -0.980799,-0.52411 -1.42162,-0.79892 -0.44081,-0.27479 -0.84758,-0.55805 -1.218529,-0.84955 -0.370951,-0.29151 -0.706021,-0.59124 -1.002521,-0.89917 0,0 -0.10616,-0.0798 -0.26562,-0.23926 -0.159475,-0.15947 -0.371865,-0.39836 -0.584475,-0.71727 -0.21261,-0.31893 -0.42552,-0.71794 -0.58498,-1.19632 -0.0797,-0.23919 -0.14624,-0.49816 -0.19275,-0.77721 -0.0465,-0.27904 -0.0729,-0.57818 -0.0729,-0.8971 v -93.28733 c -0.004,-0.74268 0.01521,-1.46879 0.05581,-2.1792 0.0406,-0.7104 0.10298,-1.40482 0.185,-2.08463 0.16405,-1.35961 0.40818,-2.65998 0.72089,-3.90725 0.31271,-1.24727 0.69364,-2.44162 1.13223,-3.58996 0.43859,-1.14834 0.9347,-2.25069 1.476389,-3.31349 0.541701,-1.06281 1.129311,-2.08614 1.751321,-3.07682 0.62201,-0.99068 1.27847,-1.94849 1.95802,-2.88044 0.67954,-0.93195 1.38221,-1.83776 2.09651,-2.724378 0.714299,-0.886629 1.44,-1.75393 2.16628,-2.60863 1.45255,-1.709409 2.90627,-3.368569 4.270019,-5.0307 0.681881,-0.83107 1.341301,-1.66283 1.966811,-2.502181 0.625499,-0.83934 1.21736,-1.686089 1.76371,-2.54713 0.54636,-0.861028 1.04748,-1.73627 1.4919,-2.63239 0.44442,-0.896128 0.83216,-1.813359 1.15187,-2.75798 0.31971,-0.94461 0.57141,-1.916818 0.74362,-2.923328 0.0861,-0.503251 0.15193,-1.0151 0.19689,-1.53634 0.045,-0.52124 0.0688,-1.051772 0.0698,-1.59267 l 0.18914,-31.991846 0.0139,-1.539441 c 0.003,-0.233185 0.0767,-0.48573 0.22066,-0.749308 0.14394,-0.263581 0.35861,-0.538176 0.6444,-0.815454 0.2858,-0.277281 0.64251,-0.557189 1.07126,-0.831474 0.42874,-0.274286 0.92945,-0.542775 1.502232,-0.797367 0.572781,-0.254566 1.217869,-0.494897 1.93579,-0.713107 0.71792,-0.218207 1.508829,-0.414165 2.372979,-0.579292 0.86415,-0.165126 1.801281,-0.299458 2.812748,-0.394809 1.011471,-0.09535 2.097278,-0.151836 3.257168,-0.160713 z"
       id="rect4618"
       inkscape:connector-curvature="0" />
    <rect
       style="opacity:1;fill:#ffffff;fill-opacity:1;fill-rule:nonzero;stroke:none;stroke-width:0.26499999;stroke-miterlimit:4;stroke-dasharray:none;stroke-opacity:1;filter:url(#filter6399)"
       id="rect6321"
       width="9.260417"
       height="70.643745"
       x="73.554169"
       y="143.01251"
       transform="matrix(1,0,0,1.4231328,0,-90.404969)" />
    <g
       id="g6570">
      <g
         style="stroke:none;stroke-opacity:1;fill:#ff0000;fill-opacity:1"
         id="g4571">
        <path
           style="fill:#ff0000;stroke:none;stroke-width:0.26458332px;stroke-linecap:butt;stroke-linejoin:miter;stroke-opacity:1;fill-opacity:1"
           d="m 65.346732,131.75776 0.401572,-14.36289 c 0,0 18.21563,5.49893 36.749556,5.47903 18.53393,-0.0199 35.94775,-5.47903 35.94775,-5.47903 l -0.40157,14.36289"
           id="path4552"
           inkscape:connector-curvature="0"
           sodipodi:nodetypes="czc" />
        <path
           style="fill:#ff0000;stroke:none;stroke-width:0.26458332px;stroke-linecap:butt;stroke-linejoin:miter;stroke-opacity:1;fill-opacity:1"
           d="m 65.346732,131.75776 c 0,0 18.21563,5.49895 36.749558,5.47903 18.53393,-0.0199 35.94775,-5.47903 35.94775,-5.47903"
           id="path4552-2"
           inkscape:connector-curvature="0"
           sodipodi:nodetypes="czc" />
      </g>
      <path
         sodipodi:nodetypes="ccccc"
         inkscape:connector-curvature="0"
         id="rect6563"
         d="m 65.715881,131.0401 72.328159,0.71766 -3.86722,0.90291 -68.830088,-0.90291 z"
         style="opacity:1;fill:#ff0000;fill-opacity:1;fill-rule:nonzero;stroke:none;stroke-width:0.38435581;stroke-miterlimit:4;stroke-dasharray:none;stroke-opacity:1" />
    </g>
    <path
       style="opacity:1;fill:none;fill-opacity:1;stroke:#000000;stroke-width:2.36500001;stroke-linecap:butt;stroke-linejoin:miter;stroke-miterlimit:4;stroke-dasharray:none;stroke-opacity:1"
       d="m 88.079553,41.501555 c 0,0 -0.136443,0.710134 -0.01425,1.539344 0.122193,0.82921 1.040233,2.868517 1.037483,3.331782 -0.0027,0.463265 -1.069283,2.051499 -1.074753,2.978029 -0.0064,1.091042 0.913675,1.300806 0.906702,2.479377 -0.007,1.178571 -0.94227,3.540555 -0.95164,5.126738 l -0.10678,18.075826 c -0.03097,17.308895 -23.315393,24.122102 -23.19709,47.887719 v 93.28722 c 0,2.55134 1.700893,3.82701 1.700893,3.82701 9.488068,9.85365 58.266342,11.36859 71.254062,0.0236 0,0 1.2066,-1.29929 1.20644,-3.88607 l -0.006,-93.23019 C 138.63183,98.940471 116.93075,92.325891 116.5584,75.032651 V 54.310937 c -0.57631,-4.044236 -1.10799,-2.522458 -1.05833,-3.638021 0.0497,-1.115562 1.0126,-1.676578 1.05833,-2.711979 0.0457,-1.035401 -1.32711,-2.991345 -1.32292,-3.571875 0.004,-0.580529 1.3137,-1.726593 1.29932,-2.887515 -0.0524,-1.87437 -5.35923,-5.112768 -14.63835,-5.041748 -9.279126,0.07102 -13.791377,3.176287 -13.816867,5.041756 z"
       id="path22"
       inkscape:connector-curvature="0"
       sodipodi:nodetypes="czzszsccsccsccczzzczcc" />
    <text
       xml:space="preserve"
       style="font-style:normal;font-variant:normal;font-weight:normal;font-stretch:normal;font-size:13.72883606px;line-height:1.25;font-family:sans-serif;-inkscape-font-specification:'sans-serif, Normal';font-variant-ligatures:normal;font-variant-caps:normal;font-variant-numeric:normal;font-feature-settings:normal;text-align:start;letter-spacing:0px;word-spacing:0px;writing-mode:lr-tb;text-anchor:start;fill:#ffffff;fill-opacity:1;stroke:none;stroke-width:0.34322089"
       x="94.432693"
       y="118.77775"
       id="text4600"
       transform="rotate(9.259759)"><tspan
         sodipodi:role="line"
         id="tspan4598"
         x="94.432693"
         y="118.77775"
         style="fill:#ffffff;stroke-width:0.34322089">V</tspan></text>
    <text
       xml:space="preserve"
       style="font-style:normal;font-variant:normal;font-weight:normal;font-stretch:normal;font-size:14.60984707px;line-height:1.25;font-family:sans-serif;-inkscape-font-specification:'sans-serif, Normal';font-variant-ligatures:normal;font-variant-caps:normal;font-variant-numeric:normal;font-feature-settings:normal;text-align:start;letter-spacing:0px;word-spacing:0px;writing-mode:lr-tb;text-anchor:start;fill:#ffffff;fill-opacity:1;stroke:none;stroke-width:0.36524621"
       x="95.496956"
       y="126.62277"
       id="text4604"
       transform="rotate(5.0653236)"><tspan
         sodipodi:role="line"
         id="tspan4602"
         x="95.496956"
         y="126.62277"
         style="fill:#ffffff;stroke-width:0.36524621">O</tspan></text>
    <text
       xml:space="preserve"
       style="font-style:normal;font-variant:normal;font-weight:normal;font-stretch:normal;font-size:14.62966347px;line-height:1.25;font-family:sans-serif;-inkscape-font-specification:'sans-serif, Normal';font-variant-ligatures:normal;font-variant-caps:normal;font-variant-numeric:normal;font-feature-settings:normal;text-align:start;letter-spacing:0px;word-spacing:0px;writing-mode:lr-tb;text-anchor:start;fill:#ffffff;fill-opacity:1;stroke:none;stroke-width:0.36574158"
       x="95.674881"
       y="135.58449"
       id="text4608"><tspan
         sodipodi:role="line"
         id="tspan4606"
         x="95.674881"
         y="135.58449"
         style="fill:#ffffff;stroke-width:0.36574158">D</tspan></text>
    <text
       xml:space="preserve"
       style="font-style:normal;font-variant:normal;font-weight:normal;font-stretch:normal;font-size:14.33791447px;line-height:1.25;font-family:sans-serif;-inkscape-font-specification:'sans-serif, Normal';font-variant-ligatures:normal;font-variant-caps:normal;font-variant-numeric:normal;font-feature-settings:normal;text-align:start;letter-spacing:0px;word-spacing:0px;writing-mode:lr-tb;text-anchor:start;fill:#ffffff;fill-opacity:1;stroke:none;stroke-width:0.35844785;"
       x="92.765152"
       y="145.60947"
       id="text4612"
       transform="rotate(-5.9437117)"><tspan
         sodipodi:role="line"
         id="tspan4610"
         x="92.765152"
         y="145.60947"
         style="stroke-width:0.35844785;fill:#ffffff;">K</tspan></text>
    <text
       xml:space="preserve"
       style="font-style:normal;font-variant:normal;font-weight:normal;font-stretch:normal;font-size:14.23986816px;line-height:1.25;font-family:sans-serif;-inkscape-font-specification:'sans-serif, Normal';font-variant-ligatures:normal;font-variant-caps:normal;font-variant-numeric:normal;font-feature-settings:normal;text-align:start;letter-spacing:0px;word-spacing:0px;writing-mode:lr-tb;text-anchor:start;fill:#ffffff;fill-opacity:1;stroke:none;stroke-width:0.3559967"
       x="77.241539"
       y="161.85031"
       id="text4616"
       transform="matrix(0.97789631,-0.25940175,0.26648179,0.95191499,0,0)"><tspan
         sodipodi:role="line"
         id="tspan4614"
         x="77.241539"
         y="161.85031"
         style="fill:#ffffff;stroke-width:0.3559967">A</tspan></text>
    <path
       style="fill:#000000;fill-opacity:1;stroke:#000000;stroke-width:0.26458332px;stroke-linecap:butt;stroke-linejoin:miter;stroke-opacity:1"
       d="m 88.024244,57.65312 c 0,0 9.120471,-0.583473 13.807266,-0.595313 4.6868,-0.01184 14.49322,0.628386 14.49322,0.628386 l 0.0444,-16.904125 -5.98684,-3.367596 -8.48534,-0.954881 -8.165547,1.235514 -5.651841,3.806449 z"
       id="path10028"
       inkscape:connector-curvature="0"
       sodipodi:nodetypes="czccccccc" />
    <rect
       style="opacity:1;fill:#ffffff;fill-opacity:1;fill-rule:nonzero;stroke:none;stroke-width:0.26499999;stroke-miterlimit:4;stroke-dasharray:none;stroke-opacity:1;filter:url(#filter6557)"
       id="rect6403"
       width="3.96875"
       height="35.454166"
       x="93.397911"
       y="44.587498" />
  </g>
</svg>
